<mxfile host="app.diagrams.net" modified="2024-06-05T06:14:48.184Z" agent="Mozilla/5.0 (Macintosh; Intel Mac OS X 10_15_7) AppleWebKit/537.36 (KHTML, like Gecko) Chrome/125.0.0.0 Safari/537.36" etag="4y8jCNsm9wOsWKsA4G1Y" version="24.4.9" type="github">
  <diagram name="Page-1" id="UonKbbKQ0xOtYwliBMsf">
    <mxGraphModel dx="1926" dy="-56" grid="1" gridSize="10" guides="1" tooltips="1" connect="1" arrows="1" fold="1" page="1" pageScale="1" pageWidth="850" pageHeight="1100" math="0" shadow="0">
      <root>
        <mxCell id="0" />
        <mxCell id="1" parent="0" />
        <mxCell id="88j9yWdIxeIhRfzHc_mj-2" value="&lt;font style=&quot;font-size: 15px;&quot;&gt;&amp;lt;&amp;lt;Software System&amp;gt;&amp;gt;&lt;/font&gt;&lt;div style=&quot;font-size: 15px;&quot;&gt;&lt;font style=&quot;font-size: 15px;&quot;&gt;Book Store System&lt;/font&gt;&lt;/div&gt;" style="rounded=0;whiteSpace=wrap;html=1;align=right;labelPosition=center;verticalLabelPosition=middle;verticalAlign=top;textDirection=ltr;fontSize=10;" vertex="1" parent="1">
          <mxGeometry x="-230" y="1375" width="710" height="300" as="geometry" />
        </mxCell>
        <mxCell id="88j9yWdIxeIhRfzHc_mj-3" value="&lt;font style=&quot;font-size: 12px;&quot;&gt;&amp;lt;&amp;lt;subsystem&amp;gt;&amp;gt;&lt;/font&gt;&lt;div style=&quot;font-size: 12px;&quot;&gt;Order Management&lt;/div&gt;" style="shape=process;whiteSpace=wrap;html=1;backgroundOutline=1;fontSize=12;horizontal=1;" vertex="1" parent="1">
          <mxGeometry x="-150" y="1475" width="140" height="70" as="geometry" />
        </mxCell>
        <mxCell id="88j9yWdIxeIhRfzHc_mj-6" value="&lt;font style=&quot;font-size: 12px;&quot;&gt;&amp;lt;&amp;lt;subsystem&amp;gt;&amp;gt;&lt;/font&gt;&lt;div style=&quot;font-size: 12px;&quot;&gt;Order Management&lt;/div&gt;" style="shape=process;whiteSpace=wrap;html=1;backgroundOutline=1;fontSize=12;" vertex="1" parent="1">
          <mxGeometry x="-160" y="1485" width="140" height="70" as="geometry" />
        </mxCell>
        <mxCell id="88j9yWdIxeIhRfzHc_mj-7" value="&lt;font style=&quot;font-size: 12px;&quot;&gt;&amp;lt;&amp;lt;subsystem&amp;gt;&amp;gt;&lt;/font&gt;&lt;div style=&quot;font-size: 12px;&quot;&gt;Order Management&lt;/div&gt;" style="shape=process;whiteSpace=wrap;html=1;backgroundOutline=1;fontSize=12;horizontal=1;" vertex="1" parent="1">
          <mxGeometry x="80" y="1475" width="140" height="70" as="geometry" />
        </mxCell>
        <mxCell id="88j9yWdIxeIhRfzHc_mj-8" value="&lt;font style=&quot;font-size: 12px;&quot;&gt;&amp;lt;&amp;lt;subsystem&amp;gt;&amp;gt;&lt;/font&gt;&lt;div style=&quot;font-size: 12px;&quot;&gt;Product Management&lt;/div&gt;" style="shape=process;whiteSpace=wrap;html=1;backgroundOutline=1;fontSize=12;" vertex="1" parent="1">
          <mxGeometry x="70" y="1485" width="140" height="70" as="geometry" />
        </mxCell>
        <mxCell id="88j9yWdIxeIhRfzHc_mj-9" value="&lt;font style=&quot;font-size: 12px;&quot;&gt;&amp;lt;&amp;lt;subsystem&amp;gt;&amp;gt;&lt;/font&gt;&lt;div style=&quot;font-size: 12px;&quot;&gt;Order Management&lt;/div&gt;" style="shape=process;whiteSpace=wrap;html=1;backgroundOutline=1;fontSize=12;horizontal=1;" vertex="1" parent="1">
          <mxGeometry x="310" y="1475" width="140" height="70" as="geometry" />
        </mxCell>
        <mxCell id="88j9yWdIxeIhRfzHc_mj-10" value="&lt;font style=&quot;font-size: 12px;&quot;&gt;&amp;lt;&amp;lt;subsystem&amp;gt;&amp;gt;&lt;/font&gt;&lt;div style=&quot;font-size: 12px;&quot;&gt;User Management&lt;/div&gt;" style="shape=process;whiteSpace=wrap;html=1;backgroundOutline=1;fontSize=12;" vertex="1" parent="1">
          <mxGeometry x="300" y="1485" width="140" height="70" as="geometry" />
        </mxCell>
        <mxCell id="88j9yWdIxeIhRfzHc_mj-11" value="" style="rounded=0;whiteSpace=wrap;html=1;fontSize=11;" vertex="1" parent="1">
          <mxGeometry x="-220" y="1150" width="120" height="60" as="geometry" />
        </mxCell>
        <mxCell id="88j9yWdIxeIhRfzHc_mj-14" value="&amp;lt;&amp;lt; external System &amp;gt;&amp;gt;&lt;div style=&quot;font-size: 11px;&quot;&gt;Payment Gateway&lt;/div&gt;" style="rounded=0;whiteSpace=wrap;html=1;fontSize=11;" vertex="1" parent="1">
          <mxGeometry x="-230" y="1160" width="120" height="60" as="geometry" />
        </mxCell>
        <mxCell id="88j9yWdIxeIhRfzHc_mj-15" value="" style="rounded=0;whiteSpace=wrap;html=1;fontSize=11;" vertex="1" parent="1">
          <mxGeometry x="80" y="1150" width="120" height="60" as="geometry" />
        </mxCell>
        <mxCell id="88j9yWdIxeIhRfzHc_mj-16" value="&amp;lt;&amp;lt;external Output&amp;gt;&amp;gt;&lt;div style=&quot;font-size: 11px;&quot;&gt;Printer&lt;/div&gt;" style="rounded=0;whiteSpace=wrap;html=1;fontSize=11;" vertex="1" parent="1">
          <mxGeometry x="70" y="1160" width="120" height="60" as="geometry" />
        </mxCell>
        <mxCell id="88j9yWdIxeIhRfzHc_mj-17" value="" style="rounded=0;whiteSpace=wrap;html=1;fontSize=11;" vertex="1" parent="1">
          <mxGeometry x="-50" y="1830" width="120" height="60" as="geometry" />
        </mxCell>
        <mxCell id="88j9yWdIxeIhRfzHc_mj-18" value="&amp;lt;&amp;lt; external User &amp;gt;&amp;gt;&lt;div style=&quot;font-size: 11px;&quot;&gt;Seller&amp;nbsp;&lt;/div&gt;" style="rounded=0;whiteSpace=wrap;html=1;fontSize=11;" vertex="1" parent="1">
          <mxGeometry x="-60" y="1840" width="120" height="60" as="geometry" />
        </mxCell>
        <mxCell id="88j9yWdIxeIhRfzHc_mj-19" value="" style="rounded=0;whiteSpace=wrap;html=1;fontSize=11;" vertex="1" parent="1">
          <mxGeometry x="220" y="1830" width="120" height="60" as="geometry" />
        </mxCell>
        <mxCell id="88j9yWdIxeIhRfzHc_mj-20" value="&amp;lt;&amp;lt; external User &amp;gt;&amp;gt;&lt;div style=&quot;font-size: 11px;&quot;&gt;Admin&lt;/div&gt;" style="rounded=0;whiteSpace=wrap;html=1;fontSize=11;" vertex="1" parent="1">
          <mxGeometry x="210" y="1840" width="120" height="60" as="geometry" />
        </mxCell>
        <mxCell id="88j9yWdIxeIhRfzHc_mj-21" value="" style="rounded=0;whiteSpace=wrap;html=1;" vertex="1" parent="1">
          <mxGeometry x="-520" y="1490" width="120" height="60" as="geometry" />
        </mxCell>
        <mxCell id="88j9yWdIxeIhRfzHc_mj-22" value="&amp;lt;&amp;lt; external User &amp;gt;&amp;gt;&lt;div style=&quot;font-size: 11px;&quot;&gt;Customer&lt;/div&gt;" style="rounded=0;whiteSpace=wrap;html=1;fontSize=11;" vertex="1" parent="1">
          <mxGeometry x="-530" y="1500" width="120" height="60" as="geometry" />
        </mxCell>
        <mxCell id="88j9yWdIxeIhRfzHc_mj-23" value="" style="endArrow=none;html=1;rounded=0;exitX=0.5;exitY=0;exitDx=0;exitDy=0;entryX=0.5;entryY=1;entryDx=0;entryDy=0;" edge="1" parent="1" source="88j9yWdIxeIhRfzHc_mj-3" target="88j9yWdIxeIhRfzHc_mj-14">
          <mxGeometry width="50" height="50" relative="1" as="geometry">
            <mxPoint x="40" y="1540" as="sourcePoint" />
            <mxPoint x="90" y="1490" as="targetPoint" />
          </mxGeometry>
        </mxCell>
        <mxCell id="88j9yWdIxeIhRfzHc_mj-24" value="" style="endArrow=none;html=1;rounded=0;exitX=0.75;exitY=0;exitDx=0;exitDy=0;entryX=0.5;entryY=1;entryDx=0;entryDy=0;" edge="1" parent="1" source="88j9yWdIxeIhRfzHc_mj-3" target="88j9yWdIxeIhRfzHc_mj-16">
          <mxGeometry width="50" height="50" relative="1" as="geometry">
            <mxPoint x="80" y="1490" as="sourcePoint" />
            <mxPoint x="40" y="1330" as="targetPoint" />
          </mxGeometry>
        </mxCell>
        <mxCell id="88j9yWdIxeIhRfzHc_mj-25" value="" style="endArrow=none;html=1;rounded=0;exitX=0.25;exitY=0;exitDx=0;exitDy=0;entryX=0.5;entryY=1;entryDx=0;entryDy=0;" edge="1" parent="1" source="88j9yWdIxeIhRfzHc_mj-17" target="88j9yWdIxeIhRfzHc_mj-6">
          <mxGeometry width="50" height="50" relative="1" as="geometry">
            <mxPoint x="-180" y="1790" as="sourcePoint" />
            <mxPoint x="-75" y="1625" as="targetPoint" />
          </mxGeometry>
        </mxCell>
        <mxCell id="88j9yWdIxeIhRfzHc_mj-26" value="" style="endArrow=none;html=1;rounded=0;exitX=0.5;exitY=0;exitDx=0;exitDy=0;entryX=0.25;entryY=1;entryDx=0;entryDy=0;" edge="1" parent="1" source="88j9yWdIxeIhRfzHc_mj-17" target="88j9yWdIxeIhRfzHc_mj-8">
          <mxGeometry width="50" height="50" relative="1" as="geometry">
            <mxPoint x="-20" y="1730" as="sourcePoint" />
            <mxPoint x="-80" y="1570" as="targetPoint" />
          </mxGeometry>
        </mxCell>
        <mxCell id="88j9yWdIxeIhRfzHc_mj-27" value="" style="endArrow=none;html=1;rounded=0;exitX=0.75;exitY=0;exitDx=0;exitDy=0;entryX=0.25;entryY=1;entryDx=0;entryDy=0;" edge="1" parent="1" source="88j9yWdIxeIhRfzHc_mj-17" target="88j9yWdIxeIhRfzHc_mj-10">
          <mxGeometry width="50" height="50" relative="1" as="geometry">
            <mxPoint x="10" y="1730" as="sourcePoint" />
            <mxPoint x="115" y="1570" as="targetPoint" />
          </mxGeometry>
        </mxCell>
        <mxCell id="88j9yWdIxeIhRfzHc_mj-28" value="" style="endArrow=none;html=1;rounded=0;exitX=0.25;exitY=0;exitDx=0;exitDy=0;entryX=0.75;entryY=1;entryDx=0;entryDy=0;" edge="1" parent="1" source="88j9yWdIxeIhRfzHc_mj-19" target="88j9yWdIxeIhRfzHc_mj-8">
          <mxGeometry width="50" height="50" relative="1" as="geometry">
            <mxPoint x="40" y="1730" as="sourcePoint" />
            <mxPoint x="345" y="1570" as="targetPoint" />
          </mxGeometry>
        </mxCell>
        <mxCell id="88j9yWdIxeIhRfzHc_mj-29" value="" style="endArrow=none;html=1;rounded=0;exitX=0.75;exitY=0;exitDx=0;exitDy=0;entryX=0.75;entryY=1;entryDx=0;entryDy=0;" edge="1" parent="1" source="88j9yWdIxeIhRfzHc_mj-19" target="88j9yWdIxeIhRfzHc_mj-10">
          <mxGeometry width="50" height="50" relative="1" as="geometry">
            <mxPoint x="220" y="1730" as="sourcePoint" />
            <mxPoint x="185" y="1570" as="targetPoint" />
          </mxGeometry>
        </mxCell>
        <mxCell id="88j9yWdIxeIhRfzHc_mj-30" value="" style="endArrow=none;html=1;rounded=0;exitX=0;exitY=0.5;exitDx=0;exitDy=0;entryX=1;entryY=0.5;entryDx=0;entryDy=0;" edge="1" parent="1" source="88j9yWdIxeIhRfzHc_mj-6" target="88j9yWdIxeIhRfzHc_mj-21">
          <mxGeometry width="50" height="50" relative="1" as="geometry">
            <mxPoint x="230" y="1740" as="sourcePoint" />
            <mxPoint x="195" y="1580" as="targetPoint" />
          </mxGeometry>
        </mxCell>
        <mxCell id="88j9yWdIxeIhRfzHc_mj-31" value="" style="endArrow=classic;html=1;rounded=0;" edge="1" parent="1">
          <mxGeometry width="50" height="50" relative="1" as="geometry">
            <mxPoint x="-180" y="1249" as="sourcePoint" />
            <mxPoint x="-140" y="1350" as="targetPoint" />
          </mxGeometry>
        </mxCell>
        <mxCell id="88j9yWdIxeIhRfzHc_mj-32" value="" style="endArrow=classic;html=1;rounded=0;" edge="1" parent="1">
          <mxGeometry width="50" height="50" relative="1" as="geometry">
            <mxPoint x="-100" y="1351" as="sourcePoint" />
            <mxPoint x="-140" y="1250" as="targetPoint" />
          </mxGeometry>
        </mxCell>
        <mxCell id="88j9yWdIxeIhRfzHc_mj-33" value="" style="endArrow=classic;html=1;rounded=0;" edge="1" parent="1">
          <mxGeometry width="50" height="50" relative="1" as="geometry">
            <mxPoint x="70" y="1339" as="sourcePoint" />
            <mxPoint x="130" y="1250" as="targetPoint" />
          </mxGeometry>
        </mxCell>
        <mxCell id="88j9yWdIxeIhRfzHc_mj-34" value="" style="endArrow=classic;html=1;rounded=0;" edge="1" parent="1">
          <mxGeometry width="50" height="50" relative="1" as="geometry">
            <mxPoint x="90" y="1250" as="sourcePoint" />
            <mxPoint x="30" y="1339" as="targetPoint" />
          </mxGeometry>
        </mxCell>
        <mxCell id="88j9yWdIxeIhRfzHc_mj-35" value="" style="endArrow=classic;html=1;rounded=0;" edge="1" parent="1">
          <mxGeometry width="50" height="50" relative="1" as="geometry">
            <mxPoint x="-41" y="1800" as="sourcePoint" />
            <mxPoint x="-70" y="1700" as="targetPoint" />
          </mxGeometry>
        </mxCell>
        <mxCell id="88j9yWdIxeIhRfzHc_mj-36" value="" style="endArrow=classic;html=1;rounded=0;" edge="1" parent="1">
          <mxGeometry width="50" height="50" relative="1" as="geometry">
            <mxPoint x="-39" y="1700" as="sourcePoint" />
            <mxPoint x="-10" y="1800" as="targetPoint" />
          </mxGeometry>
        </mxCell>
        <mxCell id="88j9yWdIxeIhRfzHc_mj-38" value="" style="endArrow=classic;html=1;rounded=0;" edge="1" parent="1">
          <mxGeometry width="50" height="50" relative="1" as="geometry">
            <mxPoint x="10" y="1780" as="sourcePoint" />
            <mxPoint x="40" y="1690" as="targetPoint" />
          </mxGeometry>
        </mxCell>
        <mxCell id="88j9yWdIxeIhRfzHc_mj-39" value="" style="endArrow=classic;html=1;rounded=0;" edge="1" parent="1">
          <mxGeometry width="50" height="50" relative="1" as="geometry">
            <mxPoint x="70" y="1690" as="sourcePoint" />
            <mxPoint x="40" y="1780" as="targetPoint" />
          </mxGeometry>
        </mxCell>
        <mxCell id="88j9yWdIxeIhRfzHc_mj-40" value="" style="endArrow=classic;html=1;rounded=0;" edge="1" parent="1">
          <mxGeometry width="50" height="50" relative="1" as="geometry">
            <mxPoint x="70" y="1780" as="sourcePoint" />
            <mxPoint x="140" y="1710" as="targetPoint" />
          </mxGeometry>
        </mxCell>
        <mxCell id="88j9yWdIxeIhRfzHc_mj-41" value="" style="endArrow=classic;html=1;rounded=0;" edge="1" parent="1">
          <mxGeometry width="50" height="50" relative="1" as="geometry">
            <mxPoint x="165" y="1730" as="sourcePoint" />
            <mxPoint x="95" y="1800" as="targetPoint" />
          </mxGeometry>
        </mxCell>
        <mxCell id="88j9yWdIxeIhRfzHc_mj-42" value="" style="endArrow=classic;html=1;rounded=0;" edge="1" parent="1">
          <mxGeometry width="50" height="50" relative="1" as="geometry">
            <mxPoint x="200" y="1720" as="sourcePoint" />
            <mxPoint x="229" y="1810" as="targetPoint" />
          </mxGeometry>
        </mxCell>
        <mxCell id="88j9yWdIxeIhRfzHc_mj-43" value="" style="endArrow=classic;html=1;rounded=0;" edge="1" parent="1">
          <mxGeometry width="50" height="50" relative="1" as="geometry">
            <mxPoint x="269" y="1810" as="sourcePoint" />
            <mxPoint x="240" y="1720" as="targetPoint" />
          </mxGeometry>
        </mxCell>
        <mxCell id="88j9yWdIxeIhRfzHc_mj-44" value="" style="endArrow=classic;html=1;rounded=0;" edge="1" parent="1">
          <mxGeometry width="50" height="50" relative="1" as="geometry">
            <mxPoint x="330" y="1810" as="sourcePoint" />
            <mxPoint x="365.5" y="1720" as="targetPoint" />
          </mxGeometry>
        </mxCell>
        <mxCell id="88j9yWdIxeIhRfzHc_mj-45" value="" style="endArrow=classic;html=1;rounded=0;" edge="1" parent="1">
          <mxGeometry width="50" height="50" relative="1" as="geometry">
            <mxPoint x="330" y="1720" as="sourcePoint" />
            <mxPoint x="294.5" y="1810" as="targetPoint" />
          </mxGeometry>
        </mxCell>
        <mxCell id="88j9yWdIxeIhRfzHc_mj-46" value="" style="endArrow=classic;html=1;rounded=0;" edge="1" parent="1">
          <mxGeometry width="50" height="50" relative="1" as="geometry">
            <mxPoint x="-371" y="1509.55" as="sourcePoint" />
            <mxPoint x="-270" y="1509.55" as="targetPoint" />
          </mxGeometry>
        </mxCell>
        <mxCell id="88j9yWdIxeIhRfzHc_mj-47" value="" style="endArrow=classic;html=1;rounded=0;" edge="1" parent="1">
          <mxGeometry width="50" height="50" relative="1" as="geometry">
            <mxPoint x="-269" y="1529.55" as="sourcePoint" />
            <mxPoint x="-370" y="1529.55" as="targetPoint" />
          </mxGeometry>
        </mxCell>
      </root>
    </mxGraphModel>
  </diagram>
</mxfile>
